<?xml version="1.0" encoding="utf-8"?>
<!-- Generator: Adobe Illustrator 18.1.1, SVG Export Plug-In . SVG Version: 6.00 Build 0)  -->
<!DOCTYPE svg PUBLIC "-//W3C//DTD SVG 1.1//EN" "http://www.w3.org/Graphics/SVG/1.1/DTD/svg11.dtd">
<svg version="1.1" xmlns="http://www.w3.org/2000/svg" xmlns:xlink="http://www.w3.org/1999/xlink" x="0px" y="0px" width="240px"
	 height="130px" viewBox="0 0 240 130" enable-background="new 0 0 240 130" xml:space="preserve">
<g id="BK" display="none">
	<rect x="-36.4" y="-591.3" display="inline" fill="#141414" width="301.2" height="792"/>
</g>
<g id="FULL_LOGO">
</g>
<g id="TYPE">
</g>
<g id="ICONS">
	<g>
		<path fill-rule="evenodd" clip-rule="evenodd" fill="#F9F9F9" d="M82.5,83.6c1.2-7.6,1.8-16,7.7-22c1.9-1.9,4-3.6,6.9-3
			c3.4,0.9,4.7,2.2,5.9,5.2c0.5,1.4,0.9,3.7,1.5,3.9c1.1-0.1,1.3-2.5,1.8-3.9c3.9-16.9,8.8-27.5,19.4-38c2.8-2.8,6.4-5.5,10-7.4
			c4.7-2.5,12.1-1.1,13.3,5.9c1.1,6.1,0.8,12.1,0.5,18.3c-0.3,9.8-0.5,19.6-0.8,29.5c-0.3,11.2-1.2,22.4-2.5,33.5
			c-0.1,0.6-0.1,1.1-0.3,1.7c-0.5,1.9-1.7,3.3-4.2,3.7c-2.4,0.3-3.5-2.2-3.2-3.7c1.2-8.8,1.7-16.2,2-25.1c0.5-9.2,0.5-17.1,0.7-25.6
			c0.2-9.6,1.2-16.3,0.1-26c-0.6-5.8-1.5-5.2-5.2-2.8c-5.1,3.2-9.2,7.6-12.7,12.5c-5.2,7.3-6.8,14.2-10,22.6
			c-2.1,5.6-3.1,7.4-4,13.2c-0.6,4-1.1,8.1-0.9,12.2c0,2.2-2,3.4-3.8,3.9c-2.3,0.6-4-1.1-3.7-3.6c0.5-5.5-0.1-10.3-0.9-15.7
			c-0.4-2.9-0.7-3.8-2.1-6.4c-0.9-1.8-2-1.8-3.7-0.8c-1.8,1.5-3.2,4.2-4.6,8.8c-2.1,6.9-2.3,11.2-1.9,18.4c0.1,2.6,1.1,7.9,2.8,10.3
			c1.6,2.1,1.3,3.2,0.8,4.6c-0.8,2-3.8,2.7-5.1,1.4C86.5,109.1,80.9,106.2,82.5,83.6z"/>
		<path fill-rule="evenodd" clip-rule="evenodd" fill="#F9F9F9" d="M175.3,96.1c-4.5,0.8-8.7-0.9-10.7-6.1c-5.4-14,1-32.7,14.1-40
			c3.6-2,6.5-1.6,7.9,2.3c1,3.9,3.2,3.9,5.1,5.5c7.3,6.1,8,9.9,4.9,17.7c-3.2,8.1-8.9,15-17.1,19.3C178,95.5,177.2,95.8,175.3,96.1z
			 M169.2,78c0.1,2.7-0.3,8.2,3.5,9.7c3.4,1.4,7-1.9,9.4-4c3.6-3.1,6.1-7.2,8.3-11.3c1-1.8,0.9-4.1-0.7-6.2c-2.2-1.6-3-5.6-6.9-1.7
			c-1.9,1.5-3.3-0.3-4-1.6c-1.7-3.1-3.2-1.5-4.4,0.1C171,67.4,168.7,72.3,169.2,78z"/>
		<path fill-rule="evenodd" clip-rule="evenodd" fill="#F9F9F9" d="M224.4,55.9c-4.9,13.4-5.3,19-7,24.4c-0.3,1.7-2.1,8.2-2.9,14.1
			c-0.1,2.2-2.4,4.7-5.1,4c-2.4-0.6-4.7-4.1-3.1-8.1c2.5-5.9,4.2-9.5,5.4-15.7c1.3-7.2,2.9-13.5,3.8-20.9c0.3-2.4,2.6-4.8,5.4-4.7
			C221,49.1,226.3,49.3,224.4,55.9z"/>
	</g>
	<g>
		<g>
			<g>
				<path fill="#F9F9F9" d="M31.9,44.3c-0.1,0-0.2,0-0.3,0c-7.2-2.1-8-10-7.4-13.9c0.1-0.8,0.7-6.9,7.9-11c12.2-6.1,19.9,4,19.9,4.1
					c0.2,0.2,4.8,6.1,2.7,13.3c-0.1,0.2-1.6,5.4-8.2,7.3c-0.6,0.2-1.3-0.2-1.5-0.8c-0.2-0.6,0.2-1.3,0.8-1.5
					c5.3-1.5,6.5-5.6,6.5-5.7c1.8-6-2.2-11.2-2.3-11.2c-0.3-0.4-6.6-8.6-16.9-3.4c-6.3,3.6-6.6,8.9-6.6,9.1c0,0,0,0.1,0,0.1
					c-0.1,0.4-1.4,9.3,5.6,11.3c0.6,0.2,1,0.8,0.8,1.5C32.9,44,32.4,44.3,31.9,44.3z"/>
			</g>
			<g>
				<path fill="#F9F9F9" d="M39.4,117.3c-0.1,0-0.2,0-0.2,0c-0.5-0.1-0.9-0.6-1-1.1c-0.2-7-3.4-10.3-8.6-15.6
					c-2.6-2.6-5.5-5.6-8.7-9.7c-0.2-0.3-5.3-6.7-4.4-14.4c0.5-4,2.5-7.6,6.1-10.6c-0.3-0.5-0.7-1.1-1.1-1.7c-1.7-2.5-3.8-5.6-4-8.9
					c-1.2-13.6,10.7-15.1,10.9-15.1c0.7-0.1,1.3,0.4,1.3,1.1c0.1,0.7-0.4,1.3-1.1,1.3c-0.4,0-9.7,1.3-8.7,12.5
					c0.2,2.7,2,5.4,3.6,7.8c0.7,1,1.3,1.9,1.7,2.7c0.3,0.5,0.1,1.2-0.3,1.5c-3.5,2.7-5.5,6-6,9.6c-0.8,6.6,3.9,12.5,3.9,12.6
					c3.2,4,6.1,6.9,8.6,9.5c4.5,4.6,7.8,8,8.9,13.4c1.6-2.7,4.4-6.8,8.5-11.8l0.1-0.1c8-9.5,11.3-13.4,7.6-23.3
					c-0.2-0.6,0.1-1.3,0.7-1.5c0.6-0.2,1.3,0.1,1.5,0.7c4.2,11.2,0.1,16-8.1,25.7l-0.1,0.1c-7.2,8.5-10,14.5-10.1,14.6
					C40.3,117,39.9,117.3,39.4,117.3z"/>
			</g>
			<g>
				<path fill="#F9F9F9" d="M57.6,77.8c-0.4,0-0.8-0.2-1-0.6c-2-3.5-3-10.4-1.5-15.3c0.2-0.6,0.4-1.2,0.7-1.9
					c1.3-3.5,3.3-8.8,0.8-13.7c-2.2-4.3-6.7-3.8-6.8-3.8c-0.7,0.1-1.3-0.4-1.3-1.1c-0.1-0.7,0.4-1.3,1.1-1.3c0.3,0,6.2-0.6,9.2,5.1
					c3,5.9,0.7,12-0.7,15.7c-0.3,0.7-0.5,1.3-0.7,1.8C56,66.9,57,73.1,58.7,76c0.3,0.6,0.1,1.3-0.5,1.6C58,77.8,57.8,77.8,57.6,77.8
					z"/>
			</g>
		</g>
	</g>
	<g>
		<g>
			<path fill="#F9F9F9" d="M47.5,65.4c-0.1,0-0.1,0-0.2,0c-0.6,0-1-0.5-1-1.1c0-0.6,0.5-1,1.1-1c0.4,0,1.1-0.1,1.6-0.6
				c1.7-1.7,1.2-3.9-0.2-6.9C48,54,47.4,51.6,49,49.6c0.1-0.1,0.2-0.2,0.3-0.3c0.5-0.3,1.1-0.2,1.5,0.3c0.1,0.2,0.4,0.7-0.1,1.4
				c-0.8,0.9-0.7,2.2,0,3.9c0.9,2,2.9,6.2-0.2,9.3C49.5,65.1,48.3,65.4,47.5,65.4z M49,49.6c-0.2,0.3-0.2,0.7,0,1.1
				C48.8,50.4,48.8,50,49,49.6z"/>
		</g>
	</g>
	<g>
		<path fill="#F9F9F9" d="M33.1,65.4c-0.7,0-1.4-0.1-2.1-0.2c-2.2-0.5-4.1-2.3-4.9-4.8c-0.9-2.6-0.5-5.3,1-7.1
			c3-3.5,7.7-2.8,7.9-2.8c0.6,0.1,1,0.6,0.9,1.2c-0.1,0.6-0.6,1-1.2,0.9c-0.1,0-3.8-0.5-6,2.1c-1,1.2-1.3,3.1-0.6,5
			c0.6,1.8,1.9,3.1,3.4,3.4c1.7,0.4,3.3,0.2,4.3-0.6c0.7-0.5,1.1-1.1,1.1-1.5c0.1-0.6,0.6-1,1.2-0.9c0.6,0.1,1,0.6,0.9,1.2
			c-0.2,1.1-0.9,2.2-2,2.9C35.9,65,34.6,65.4,33.1,65.4z"/>
	</g>
	<g>
		<path fill="#F9F9F9" d="M34,60.6L34,60.6c-0.8,0-1.4-0.3-1.9-0.9c-0.7-0.8-0.9-1.7-0.8-2.4c0.2-1,1-1.5,1.1-1.5
			c0.5-0.3,1-0.4,1.5-0.4c0.7,0,1.9,0.3,2.6,2c0.3,0.7,0.2,1.4-0.2,2C35.8,60.1,34.9,60.6,34,60.6z M34,56.5c-0.3,0-0.6,0.1-0.9,0.3
			c0,0-0.5,0.3-0.5,0.7c-0.1,0.5,0.2,1,0.5,1.4c0.2,0.3,0.6,0.5,0.9,0.5l0,0c0.5,0,1.1-0.3,1.3-0.7c0.2-0.3,0.2-0.6,0.1-0.9
			C35.2,57.2,34.8,56.5,34,56.5z"/>
	</g>
	<g>
		<path fill="#F9F9F9" d="M27.7,79.1c-0.3,0-0.5-0.1-0.8-0.2c-0.3-0.2-1-0.7-0.8-2.1c1-6.3-3.2-10.7-3.2-10.7
			c-0.4-0.4-0.4-1.1,0-1.5c0.4-0.4,1.1-0.4,1.5,0c0.2,0.2,4.7,4.8,3.9,11.9c0.2-0.2,0.4-0.5,0.6-0.9c0.7-1.3,2.1-5-0.5-11.7
			c-0.2-0.5,0.1-1.2,0.6-1.4c0.5-0.2,1.2,0.1,1.4,0.6c3.3,8.5,0.9,13.5-0.9,15.2C28.9,78.8,28.3,79.1,27.7,79.1z"/>
	</g>
	<g>
		<path fill="#F9F9F9" d="M57.1,76.5c-0.4,0-0.8-0.2-0.9-0.6c-2.8-5.7-4.9-7-5-7c-0.5-0.3-0.7-0.9-0.4-1.4c0.3-0.5,0.9-0.7,1.4-0.4
			c0.3,0.1,2.7,1.6,5.8,7.9c0.3,0.5,0,1.2-0.5,1.4C57.4,76.5,57.2,76.5,57.1,76.5z"/>
	</g>
	<g>
		<path fill="#F9F9F9" d="M39.5,116.8c-0.1,0-0.3,0-0.4-0.1c-0.5-0.2-0.8-0.8-0.6-1.4c4.2-10.9,4.7-33.4-3-41
			c-0.4-0.4-0.4-1.1,0-1.5c0.4-0.4,1.1-0.4,1.5,0c9,8.8,7.4,33,3.5,43.3C40.3,116.5,39.9,116.8,39.5,116.8z"/>
	</g>
	<g>
		<path fill="#F9F9F9" d="M41.5,85.8c-0.5,0-0.9-0.3-1-0.8C39.1,78,41.9,74.6,42,74.4c0.4-0.4,1-0.5,1.5-0.1c0.4,0.4,0.5,1,0.1,1.5
			c-0.1,0.1-2.3,2.9-1.1,8.7c0.1,0.6-0.3,1.1-0.8,1.2C41.6,85.7,41.6,85.8,41.5,85.8z"/>
	</g>
</g>
<g id="COLOURS">
</g>
</svg>
