<?xml version="1.0" encoding="utf-8"?>
<!-- Generator: Adobe Illustrator 18.0.0, SVG Export Plug-In . SVG Version: 6.00 Build 0)  -->
<!DOCTYPE svg PUBLIC "-//W3C//DTD SVG 1.1//EN" "http://www.w3.org/Graphics/SVG/1.1/DTD/svg11.dtd">
<svg version="1.1" id="Layer_1" xmlns="http://www.w3.org/2000/svg" xmlns:xlink="http://www.w3.org/1999/xlink" x="0px" y="0px"
	 width="200px" height="100px" viewBox="0 0 200 100" enable-background="new 0 0 200 100" xml:space="preserve">
<g>
	<path fill="#141414" d="M49.3,58.5C49.3,58.5,49.3,58.5,49.3,58.5C49.2,58.4,49.2,58.4,49.3,58.5c-1.5-2.6-2.3-7.9-1.2-11.5
		c0.1-0.4,0.3-0.9,0.6-1.5c1.1-3,3-8,0.6-12.7c-1.5-2.8-3.9-3.7-5.5-4c1.6-1.6,2.1-3.2,2.1-3.3c1.7-5.8-2-10.6-2.2-10.8
		c-0.1-0.1-6.2-8.2-16.1-3.3c-6.1,3.5-6.3,8.7-6.3,8.9c0,0.1-0.8,5.3,1.9,8.7c-2.5,0.7-8.4,3.2-7.6,12c0.2,2.6,1.9,5.2,3.3,7.3
		c0.4,0.6,0.8,1.2,1.1,1.7c-3,2.5-4.8,5.4-5.2,8.8c-0.7,6.2,3.4,11.4,3.6,11.7c2.7,3.4,5.1,5.9,7.2,8.1c4.4,4.5,7.1,7.3,7.3,13.3
		c0,0.3,0.2,0.5,0.5,0.6c0,0,0.1,0,0.1,0c0.2,0,0.5-0.1,0.6-0.4c0,0,2.4-5.1,8.4-12.2l0.1-0.1C49.3,71.6,52.7,67.6,49.3,58.5z
		 M41.7,78.7l-0.1,0.1c-2.7,3.2-4.7,6-6.1,8.2c1.5-6.4,1.8-14.7,0.4-21.4c0-0.1,0-0.1,0-0.2c-1-5,0.9-7.4,1-7.5
		c0.2-0.3,0.2-0.7-0.1-0.9c-0.3-0.2-0.7-0.2-0.9,0.1c-0.1,0.1-1.1,1.3-1.4,3.7c-0.8-2-1.9-3.7-3.2-5c-0.2-0.2-0.6-0.2-0.9,0
		c-0.2,0.2-0.2,0.6,0,0.9c3,2.9,4.8,8.7,5.1,16.3c0.2,5.3-0.5,11.1-1.7,15.6c-0.9-4.5-3.6-7.3-7.3-11.1c-2.1-2.2-4.5-4.6-7.2-8
		c0,0-4-5.1-3.3-10.7c0.4-3,2-5.7,4.7-7.9c1,1.4,2.6,4.4,2,8.1c-0.2,1,0.3,1.3,0.5,1.5c0.2,0.1,0.3,0.1,0.5,0.1
		c0.4,0,0.8-0.2,1.3-0.6c1.4-1.2,3.2-4.9,1.2-11.1c0.1,0,0.3,0.1,0.4,0.1c0.6,0.1,1.1,0.2,1.7,0.2c1.2,0,2.3-0.3,3.1-0.9
		c0.9-0.6,1.4-1.4,1.6-2.3c0.1-0.3-0.2-0.7-0.5-0.7c-0.3-0.1-0.7,0.2-0.7,0.5c-0.1,0.5-0.5,1.1-1,1.4c-1,0.7-2.3,0.8-3.8,0.5
		c-1.3-0.3-2.5-1.4-3-3c-0.6-1.7-0.3-3.3,0.6-4.4c1.9-2.3,5.2-1.8,5.2-1.8c0.3,0,0.7-0.2,0.7-0.5c0.1-0.3-0.2-0.7-0.5-0.7
		c-0.2,0-3.9-0.6-6.3,2.2c-1.2,1.4-1.5,3.6-0.8,5.6c0.4,1.2,1.1,2.1,1.9,2.8c0,0,0,0,0,0.1c2.4,6.3,0.7,9.5,0.2,10.4
		c-0.4,0.5-0.7,0.7-0.8,0.8c0,0,0-0.1,0-0.1c0.9-6-2.9-10-3.1-10.2c0,0,0,0,0,0c-0.3-0.5-0.6-1-0.9-1.5c-1.3-1.9-2.9-4.3-3.1-6.7
		C16,31.7,23.1,30.2,24.2,30c0.8,0.6,1.7,1.2,2.9,1.5c0.1,0,0.1,0,0.2,0c0.3,0,0.5-0.2,0.6-0.5c0.1-0.3-0.1-0.7-0.4-0.8
		c-6.2-1.7-5-9.5-5-9.9c0,0,0.2-4.8,5.7-7.9c8.9-4.4,14.3,2.6,14.5,3c0,0,3.5,4.5,2,9.7c0,0-1.1,3.6-5.7,5c-0.3,0.1-0.5,0.4-0.4,0.8
		c0.1,0.3,0.4,0.5,0.8,0.4c1.2-0.3,2.2-0.8,3-1.3c0.7,0,4.1,0,5.9,3.4c2.2,4.2,0.5,8.7-0.6,11.7c-0.2,0.6-0.4,1.1-0.6,1.6
		c-0.6,2.1-0.7,4.6-0.4,7c-1.4-2-2.4-2.6-2.5-2.6c-0.3-0.2-0.7-0.1-0.8,0.2c-0.2,0.3-0.1,0.7,0.2,0.8c0,0,1.8,1.1,4.2,5.9
		c0,0,0,0,0,0c0.1,0.3,0.3,0.6,0.4,0.9C51.2,67.4,48.2,70.9,41.7,78.7z"/>
	<path fill="#141414" d="M43.5,40.8c-0.7-1.5-0.7-2.7,0-3.5c0.3-0.4,0.2-0.7,0.1-0.8c-0.2-0.3-0.6-0.4-0.9-0.2
		c-0.1,0.1-0.1,0.1-0.2,0.2l0,0c0,0.1-0.1,0.1-0.1,0.2c0-0.1,0-0.2,0.1-0.2c-1.3,1.5-0.8,3.5-0.2,4.8c1,2.1,1.8,4.4,0.1,6
		c-0.5,0.5-1.2,0.6-1.5,0.6c-0.4,0-0.6,0.2-0.7,0.6c0,0.3,0.2,0.6,0.6,0.7c0,0,0.1,0,0.1,0c0.7,0,1.7-0.3,2.3-1
		C45.9,45.8,44.4,42.5,43.5,40.8z"/>
	<polygon fill="#141414" points="42.6,36.4 42.6,36.4 42.6,36.4 	"/>
	<path fill="#141414" d="M29,41.8c-0.4,0-0.9,0.1-1.3,0.4c-0.1,0-0.8,0.4-0.9,1.3c-0.1,0.6,0.1,1.3,0.6,2c0.4,0.5,0.9,0.8,1.6,0.8
		c0.8,0,1.5-0.4,1.9-1c0.4-0.5,0.4-1.1,0.2-1.7C30.6,42,29.6,41.8,29,41.8z M30.1,44.6c-0.4,0.6-1.4,0.8-1.9,0.2
		c-0.2-0.3-0.5-0.8-0.4-1.2c0.1-0.4,0.4-0.6,0.5-0.6c0.3-0.2,0.5-0.2,0.8-0.2c0.7,0,1,0.6,1.2,1C30.3,44.1,30.3,44.4,30.1,44.6z"/>
</g>
<g>
	<path fill-rule="evenodd" clip-rule="evenodd" fill="#141414" d="M78.7,46.1c2.3-5,4.2-10.6,9.4-13.7c1.6-0.9,3.4-1.7,5.3-0.8
		c2.2,1.2,2.8,2.4,3.1,4.7c0.1,1-0.1,2.7,0.3,2.9c0.7,0.2,1.4-1.4,2-2.3c5.8-10.9,11.2-17.2,20.5-22.5c2.5-1.4,5.4-2.6,8.2-3.2
		c3.7-0.9,8.5,1.5,8.1,6.5c-0.4,4.4-1.8,8.5-3.1,12.7c-2.1,6.7-4,13.4-6.1,20.1c-2.3,7.6-5,15.1-8,22.6c-0.2,0.4-0.3,0.8-0.5,1.1
		c-0.7,1.2-1.8,2-3.6,1.8c-1.7-0.2-2-2.2-1.5-3.2C115.4,67,117.1,62,119,56c2.1-6.2,3.5-11.6,5.3-17.5c2-6.5,3.9-11,5-17.8
		c0.6-4.1-0.1-3.8-3.1-2.9c-4.1,1.3-7.8,3.5-11.1,6.2c-4.9,4-7.3,8.5-11.1,13.7c-2.5,3.5-3.5,4.5-5.2,8.3c-1.2,2.7-2.3,5.4-2.9,8.2
		c-0.4,1.5-2,1.9-3.3,2c-1.7,0-2.5-1.5-1.9-3.2c1.4-3.7,1.8-7.1,2.4-11c0.3-2.1,0.2-2.8-0.3-4.8c-0.3-1.4-1-1.6-2.4-1.3
		c-1.5,0.7-3,2.3-4.8,5.2c-2.8,4.3-3.7,7.3-4.7,12.3c-0.4,1.8-0.8,5.6,0,7.6c0.7,1.7,0.3,2.5-0.3,3.3c-0.9,1.2-3.1,1.1-3.8,0
		C76.7,64.4,73.4,61.3,78.7,46.1z"/>
	<path fill-rule="evenodd" clip-rule="evenodd" fill="#141414" d="M144.2,63.1c-3.3,0.3-6.1-1.2-7.2-5c-3-10.2,2.8-23.2,12.5-27.5
		c2.7-1.2,4.7-0.7,5.4,2.1c0.4,2.8,2.1,2.9,3.3,4.2c4.8,4.8,5.1,7.5,2.4,12.9c-2.8,5.5-7.3,10.1-13.3,12.6
		C146.2,62.8,145.6,63,144.2,63.1z M141,49.9c-0.1,1.9-0.7,5.8,1.9,7.1c2.3,1.2,5.1-0.9,6.9-2.3c2.8-2,4.8-4.7,6.6-7.5
		c0.8-1.2,0.9-2.9-0.1-4.4c-1.4-1.3-1.8-4.2-4.8-1.7c-1.4,1-2.3-0.4-2.8-1.4c-1-2.3-2.2-1.3-3.1-0.2C143,42.4,141,45.8,141,49.9z"/>
	<path fill-rule="evenodd" clip-rule="evenodd" fill="#141414" d="M183.2,31.9c-4.5,10.5-5,14.9-6.7,19.1c-0.3,1.4-2,6.4-2.9,11.1
		c-0.1,1.7-2.1,3.6-4.2,3c-1.9-0.6-3.6-3.4-2.1-6.5c2.2-4.6,3.8-7.4,5-12.2c1.4-5.7,2.9-10.7,4-16.5c0.3-1.9,2.3-3.7,4.5-3.5
		C180.7,26.3,184.9,26.7,183.2,31.9z"/>
</g>
<g>
</g>
<g>
</g>
<g>
</g>
<g>
</g>
<g>
</g>
<g>
</g>
</svg>
